HIERARCHY
ROOT pelvis
{
  OFFSET 0 100 0
  CHANNELS 6 Xposition Yposition Zposition Zrotation Xrotation Yrotation
  JOINT pelvis_right_femur
  {
    OFFSET -10.78128 -3.44521 -0.5502486
    CHANNELS 3 Zrotation Xrotation Yrotation
    JOINT right_femur_tibia
    {
      OFFSET -0.8047443 -44.0398 -0.1307829
      CHANNELS 3 Zrotation Xrotation Yrotation
      JOINT right_tibia_foot
      {
        OFFSET 3.006224 -47.83518 -5
        CHANNELS 3 Zrotation Xrotation Yrotation
        End Site
        {
          OFFSET 0 -5 15
        }
      }
    }
  }
  JOINT pelvis_left_femur
  {
    OFFSET 10.78128 -3.44521 -0.5502486
    CHANNELS 3 Zrotation Xrotation Yrotation
    JOINT left_femur_tibia
    {
      OFFSET 0.8047443 -44.0398 -0.1307829
      CHANNELS 3 Zrotation Xrotation Yrotation
      JOINT left_tibia_foot
      {
        OFFSET -4.370144 -48.10324 -4.275266
        CHANNELS 3 Zrotation Xrotation Yrotation
        End Site
        {
          OFFSET 0 -5 15
        }
      }
    }
  }
  JOINT pelvis_spine1
  {
    OFFSET 0 6.468898 -3.129235
    CHANNELS 3 Zrotation Xrotation Yrotation
    JOINT spine1
    {
      OFFSET 0 23.15396 4.99043
      CHANNELS 3 Zrotation Xrotation Yrotation
      JOINT spine2
      {
        OFFSET 0 20.79997 -5.064912
        CHANNELS 3 Zrotation Xrotation Yrotation
        JOINT neck
        {
          OFFSET 0 14.38658 9.616178
          CHANNELS 3 Zrotation Xrotation Yrotation
          End Site
          {
            OFFSET 0 20 0
          }
        }
      }
      JOINT right_manubrium
      {
        OFFSET -5.722621 16.35077 3.967754
        CHANNELS 3 Zrotation Xrotation Yrotation
        JOINT right_clavicle
        {
          OFFSET -13.16364 1.694482 -4.693211
          CHANNELS 3 Zrotation Xrotation Yrotation
          JOINT right_humerus
          {
            OFFSET -28.5034 -0.3100689 -2.792744
            CHANNELS 3 Zrotation Xrotation Yrotation
            JOINT right_radius
            {
              OFFSET -25.15693 0.02248979 -1.271978
              CHANNELS 3 Zrotation Xrotation Yrotation
              End Site
              {
                OFFSET -15 0 0
              }
            }
          }
        }
      }
      JOINT left_manubrium
      {
        OFFSET 5.722621 16.35077 3.967754
        CHANNELS 3 Zrotation Xrotation Yrotation
        JOINT left_clavicle
        {
          OFFSET 13.16364 1.694482 -4.693211
          CHANNELS 3 Zrotation Xrotation Yrotation
          JOINT left_humerus
          {
            OFFSET 29.39168 -1.063119 -2.237045
            CHANNELS 3 Zrotation Xrotation Yrotation
            JOINT left_radius
            {
              OFFSET 24.59957 -0.9528479 0.9047498
              CHANNELS 3 Zrotation Xrotation Yrotation
              End Site
              {
                OFFSET 15 -0 -0
              }
            }
          }
        }
      }
    }
  }
}
MOTION
Frames: 11
Frame Time: 0.0416666666667
0 103.5113 0 2.642031 -2.516934 0.276017 0.9830663 -10.4915 7.542017 -0 36.89815 -0 -5.186236 -18.24698 -3.580866 -8.06604 11.6673 -23.71828 -0 4.40832 -0 8.690951 -15.49655 25.94081 -2.839872 -3.770942 5.093111 3.069234 9.51084 -7.853474 1.285469 21.68502 6.292107 2.380865 -26.59224 9.710531 5.539424 -19.55684 11.0061 85.78224 34.14849 -19.72954 -0 0 15.62774 -7.115624 7.163761 4.140334 6.159066 -21.01421 -0.5487095 -95.6877 25.9204 24.41762 0 0 -12.95007 9.646998 16.9434 3.040687
0.2728756 103.5172 1.368213 1.991986 -1.128813 0.3391863 1.990985 -13.47474 8.664507 -0 37.59264 -0 -4.572457 -17.83668 -3.603628 -7.744435 11.34504 -23.81051 -0 4.301069 -0 7.790604 -16.44074 26.07035 -2.951422 -3.95545 5.199701 2.945685 9.437335 -7.740674 1.336215 21.88948 6.137969 2.259366 -26.43889 9.695423 5.488367 -19.67561 10.88893 85.54812 34.07856 -19.35963 -0 0 16.01513 -7.220437 6.980084 4.101018 6.127215 -20.95252 -0.4262503 -96.08039 26.19072 24.85908 0 0 -12.08431 9.489252 17.45756 3.201054
0.5082502 103.4467 2.975071 1.266639 -0.4954846 0.4185728 3.039607 -16.97325 8.049929 -0 35.93923 -0 -5.235419 -15.89917 -3.223486 -7.259027 11.49648 -23.09039 -0 4.716755 -0 6.843393 -17.82466 25.58705 -2.726293 -3.56497 4.873179 3.391012 9.617716 -8.118925 1.180264 21.3832 6.504587 2.513295 -27.02277 9.753752 5.573443 -19.40662 11.18798 86.30893 34.02514 -20.65612 -0 0 14.93411 -6.70373 7.175283 4.104466 6.150807 -21.15517 -0.8529569 -95.26079 25.84131 23.91145 0 0 -14.46344 9.682582 16.13027 3.070717
0.7247363 103.3162 4.818159 0.5632066 0.3710487 0.4833793 4.201094 -20.73668 7.948614 -0 34.01781 -0 -5.566023 -14.12799 -2.994103 -6.836713 11.58845 -22.37446 -0 5.05965 -0 6.347941 -19.11753 25.24386 -2.621815 -3.381156 4.671794 3.688486 9.707087 -8.368024 1.07788 21.10677 6.696322 2.635005 -27.4028 9.777809 5.586001 -19.25963 11.34611 86.81161 33.91305 -21.52284 -0 0 14.26352 -6.357708 7.187654 4.088748 6.143718 -21.31038 -1.138115 -94.84554 25.78083 23.42018 0 0 -15.9007 9.692927 15.35722 3.135957
0.9377548 103.0586 6.972582 -0.009421215 1.109644 0.5621399 5.227047 -24.38752 7.576423 -0 31.14429 -0 -6.000799 -12.15412 -2.688628 -6.519787 11.8321 -21.4608 -0 5.515713 -0 6.350548 -20.27002 24.81776 -2.493838 -3.176422 4.440607 4.017781 9.793575 -8.656002 0.9642307 20.77958 6.918958 2.783484 -27.80704 9.79843 5.58423 -19.07657 11.51512 87.3976 33.80474 -22.50912 -0 0 13.48013 -6.015448 7.243695 4.081217 6.163741 -21.5182 -1.442321 -94.31419 25.66546 22.78162 0 0 -17.58636 9.733796 14.46572 3.183816
1.158476 102.646 9.509049 -0.4737916 1.803553 0.6836549 6.104465 -27.89767 7.035911 -0 27.59655 -0 -6.458571 -10.028 -2.306775 -6.293933 12.21494 -20.43863 -0 6.145015 -0 6.548617 -21.30839 24.22153 -2.383271 -3.003854 4.230822 4.324636 9.869406 -8.930926 0.8490451 20.49068 7.109631 2.911708 -28.15569 9.787551 5.558711 -18.90195 11.65949 87.97232 33.6848 -23.45696 -0 0 12.71902 -5.745645 7.277006 4.096151 6.171741 -21.74728 -1.742166 -93.82265 25.60855 22.19163 0 0 -19.17127 9.703001 13.62047 3.325796
1.392409 102.0668 12.51486 -0.8121626 2.370669 0.8868026 6.717734 -30.99461 6.183518 -0 23.56868 -0 -7.00117 -7.716178 -1.798313 -6.151112 12.77965 -19.29144 -0 7.153685 -0 6.724538 -22.1057 23.29081 -2.276848 -2.842292 4.037508 4.605986 9.944801 -9.196775 0.7301398 20.22411 7.28002 3.032828 -28.4354 9.738609 5.516931 -18.72048 11.78886 88.54976 33.57383 -24.37568 -0 0 11.95215 -5.57524 7.330758 4.147789 6.174763 -22.00431 -2.04096 -93.3173 25.55984 21.58908 0 0 -20.71313 9.620601 12.7795 3.53761
1.640389 101.3591 16.08088 -1.063691 2.804535 1.209734 7.082575 -33.46287 5.112214 -0 19.51603 -0 -7.600359 -5.276851 -1.193569 -6.041268 13.49855 -18.03043 -0 8.827347 -0 6.580052 -22.49087 21.88099 -2.180353 -2.693959 3.872291 4.845519 10.02959 -9.442424 0.6077891 19.99783 7.417153 3.139216 -28.6158 9.637156 5.464502 -18.5385 11.90226 89.11312 33.47194 -25.23235 -0 0 11.20561 -5.539947 7.407121 4.249863 6.160658 -22.28154 -2.340372 -92.81806 25.53045 21.00442 0 0 -22.14005 9.456051 11.96414 3.851344
1.898132 100.6226 20.29015 -1.294148 3.076757 1.670834 7.305079 -35.00146 4.020769 -0 16.04538 -0 -8.213744 -2.849895 -0.5793322 -5.881787 14.27981 -16.64814 -0 11.57164 -0 5.817617 -22.18718 19.87757 -2.095865 -2.554361 3.745515 5.02408 10.13388 -9.655017 0.4844491 19.82381 7.512693 3.227763 -28.66409 9.472408 5.410066 -18.35988 12.00111 89.63962 33.38887 -25.9832 -0 0 10.50855 -5.681433 7.52493 4.418781 6.122366 -22.5664 -2.636906 -92.32783 25.50937 20.44873 0 0 -23.39119 9.196111 11.19032 4.274939
2.157983 100.027 25.19125 -1.600945 3.174703 2.243457 7.61422 -35.29981 3.265336 -0 13.84217 -0 -8.758452 -0.7223097 -0.1185683 -5.562904 14.90501 -15.15596 -0 15.84995 -0 4.224265 -20.86616 17.30507 -2.02954 -2.421278 3.67139 5.120127 10.26777 -9.816373 0.3637249 19.71913 7.555097 3.292263 -28.54807 9.235576 5.3637 -18.19605 12.08666 90.09162 33.33178 -26.56685 -0 0 9.909176 -6.040426 7.695192 4.672907 6.047783 -22.83582 -2.926249 -91.86576 25.49611 19.95716 0 0 -24.37958 8.820101 10.48483 4.822061
2.413112 99.78874 30.75989 -2.064664 3.079531 2.828981 8.216735 -34.07224 3.160998 -0 13.3862 -0 -9.163613 0.6702828 0.005819047 -4.995086 14.99357 -13.59701 -0 22.05452 -0 1.841312 -18.26993 14.43476 -1.988655 -2.29104 3.667244 5.110339 10.43745 -9.901683 0.2515278 19.70061 7.534122 3.32728 -28.24021 8.924508 5.335522 -18.06422 12.15991 90.41227 33.31313 -26.89726 -0 0 9.472032 -6.653516 7.927714 5.032573 5.923899 -23.05416 -3.19869 -91.4572 25.48808 19.57759 0 0 -25.00714 8.315543 9.878808 5.492937
